<svg width="26" height="27" viewBox="0 0 26 27" fill="none" xmlns="http://www.w3.org/2000/svg">
<path d="M25.2241 12.6098C25.1445 12.4024 24.0429 10.3684 21.9988 7.81666C21.9467 7.75503 21.914 7.6794 21.9047 7.59925C21.7812 6.11271 21.5754 4.63415 21.2883 3.17037C21.2558 3.02351 21.1781 2.89051 21.0661 2.79002C20.9542 2.68953 20.8136 2.6266 20.6641 2.61004L18.5348 2.35341C18.5162 2.35174 18.4974 2.35174 18.4788 2.35341C18.3599 2.35341 18.2459 2.40064 18.1618 2.4847C18.0778 2.56877 18.0305 2.68279 18.0305 2.80167V3.53907C18.0305 3.54621 18.0277 3.55305 18.0227 3.55809C18.0176 3.56314 18.0108 3.56597 18.0036 3.56597C17.997 3.56611 17.9906 3.56371 17.9857 3.55925C16.6582 2.35251 15.2247 1.26781 13.7025 0.318276C13.3912 0.109855 13.0248 -0.000960278 12.6502 6.26925e-06C12.2756 -0.000960278 11.9092 0.109855 11.5979 0.318276C4.262 4.85138 0.225353 12.2063 0.0695801 12.6098C0.0237875 12.7067 2.55037e-05 12.8126 2.05183e-08 12.9198C-2.54627e-05 13.027 0.0236865 13.1329 0.069433 13.2298C0.11518 13.3268 0.181826 13.4124 0.264587 13.4805C0.347349 13.5487 0.444172 13.5977 0.548106 13.624L2.66057 14.0308C2.80021 14.0691 2.92516 14.1484 3.01925 14.2585C3.11335 14.3686 3.17227 14.5043 3.1884 14.6482C3.20521 15.0214 3.60529 23.3513 4.10623 25.512C4.14748 25.6672 4.23885 25.8044 4.36612 25.9023C4.4934 26.0001 4.64945 26.0532 4.81001 26.0533H4.8257C6.05843 26.0219 7.18695 26.0017 8.41184 25.9849H8.5127C8.57542 25.9843 8.6354 25.9591 8.67965 25.9146C8.7239 25.8702 8.74887 25.8101 8.74916 25.7473V25.7417C8.69873 25.0144 8.59227 23.3514 8.50597 21.5953C8.50597 21.5516 8.50037 21.4966 8.49813 21.4518C8.4924 21.38 8.46944 21.3106 8.43121 21.2496C8.39297 21.1885 8.34058 21.1376 8.27848 21.1011C7.95666 20.9091 7.68715 20.6408 7.49382 20.3198C7.30049 19.9988 7.18931 19.6351 7.17014 19.2609C7.05807 16.3405 7.00316 12.9639 7.16229 10.3225C7.16452 10.2098 7.21141 10.1027 7.29264 10.0246C7.37387 9.94653 7.48278 9.90392 7.59543 9.90614C7.70808 9.90837 7.81522 9.95526 7.8933 10.0365C7.97138 10.1177 8.01399 10.2266 8.01176 10.3393V10.3729C7.90754 12.1335 7.89969 14.2157 7.93555 16.2699C7.93673 16.3361 7.95094 16.4014 7.97737 16.4622C8.0038 16.5229 8.04194 16.5778 8.0896 16.6238C8.13726 16.6698 8.19351 16.706 8.25515 16.7302C8.31678 16.7545 8.38259 16.7664 8.44882 16.7652C8.51504 16.764 8.58039 16.7498 8.64112 16.7234C8.70186 16.6969 8.75679 16.6588 8.80279 16.6111C8.84878 16.5635 8.88494 16.5072 8.9092 16.4456C8.93345 16.384 8.94533 16.3181 8.94415 16.2519C8.90605 14.1843 8.91726 12.0886 9.02372 10.3225C9.02483 10.2667 9.03691 10.2117 9.05927 10.1606C9.08163 10.1095 9.11385 10.0633 9.15407 10.0246C9.19429 9.98594 9.24173 9.95558 9.29368 9.93526C9.34564 9.91493 9.40108 9.90504 9.45686 9.90614C9.51264 9.90725 9.56765 9.91933 9.61876 9.94169C9.66987 9.96406 9.71607 9.99627 9.75473 10.0365C9.79339 10.0767 9.82375 10.1242 9.84407 10.1761C9.8644 10.2281 9.87429 10.2835 9.87319 10.3393C9.87319 10.3505 9.87319 10.3617 9.87319 10.3729C9.77009 12.1245 9.76112 14.1944 9.79698 16.2374C9.79906 16.3711 9.85419 16.4985 9.95024 16.5917C10.0463 16.6848 10.1754 16.7359 10.3091 16.7338C10.4429 16.7317 10.5703 16.6766 10.6634 16.5806C10.7565 16.4845 10.8077 16.3554 10.8056 16.2217C10.7675 14.163 10.7787 12.0752 10.8852 10.3214C10.8863 10.2656 10.8983 10.2106 10.9207 10.1595C10.9431 10.1083 10.9753 10.0621 11.0155 10.0235C11.0557 9.98482 11.1032 9.95446 11.1551 9.93414C11.2071 9.91381 11.2625 9.90392 11.3183 9.90502C11.3741 9.90613 11.4291 9.91821 11.4802 9.94057C11.5313 9.96294 11.5775 9.99515 11.6162 10.0354C11.6548 10.0756 11.6852 10.123 11.7055 10.175C11.7258 10.2269 11.7357 10.2824 11.7346 10.3382C11.7346 10.3494 11.7346 10.3606 11.7346 10.3718C11.5833 12.9404 11.6326 16.1903 11.7346 19.0424C11.7346 19.0424 11.7346 19.067 11.7346 19.0693C11.7346 19.0715 11.7346 19.0984 11.7346 19.113V19.141C11.7349 19.511 11.6451 19.8755 11.4729 20.2029C11.3006 20.5304 11.0512 20.811 10.7462 21.0204C10.692 21.0578 10.647 21.107 10.6144 21.1642C10.5818 21.2214 10.5625 21.2853 10.5579 21.351C10.5579 21.351 10.5064 21.7891 10.6991 23.9106C10.7899 24.8374 10.8583 25.4795 10.8908 25.7698C10.8979 25.824 10.9246 25.8738 10.9659 25.9097C11.0072 25.9456 11.0602 25.9652 11.1149 25.9647H11.311C11.7178 25.9647 12.1381 25.9647 12.574 25.9647H12.7376H14.32L15.518 25.9748C15.5731 25.9752 15.6263 25.9553 15.6677 25.919C15.709 25.8826 15.7355 25.8323 15.7421 25.7776C16.0201 23.2348 16.0851 21.806 16.0851 21.806C16.0835 21.745 16.06 21.6867 16.0188 21.6418C15.9776 21.5969 15.9215 21.5684 15.8609 21.5616L14.4041 21.361C14.3072 21.3492 14.2161 21.309 14.1419 21.2457C14.0678 21.1823 14.014 21.0985 13.9872 21.0047C13.9689 20.9315 13.9629 20.8557 13.9692 20.7805C14.5509 12.3005 17.3447 9.44611 17.3447 9.44611C17.3861 9.4044 17.4315 9.36686 17.4803 9.33404C17.5357 9.29391 17.5996 9.267 17.667 9.25538C17.7345 9.24375 17.8037 9.24771 17.8693 9.26697C17.935 9.28623 17.9954 9.32026 18.0459 9.36646C18.0963 9.41267 18.1356 9.46981 18.1605 9.53352C18.1804 9.59987 18.1925 9.66833 18.1964 9.73748C18.4373 12.4013 18.3197 16.9355 18.1706 20.4724C18.044 23.4746 17.8905 25.8314 17.8905 25.8314C17.8905 25.8778 17.9089 25.9222 17.9417 25.955C17.9744 25.9878 18.0189 26.0062 18.0653 26.0062C18.8587 26.0197 19.6342 26.0353 20.468 26.0566H20.4837C20.6442 26.0566 20.8003 26.0035 20.9276 25.9056C21.0548 25.8077 21.1462 25.6705 21.1875 25.5154C21.6884 23.3547 22.084 15.0248 22.1053 14.6516C22.1211 14.5076 22.1799 14.3717 22.2741 14.2616C22.3682 14.1514 22.4933 14.0722 22.6331 14.0341L24.7456 13.6273C24.8495 13.601 24.9463 13.5521 25.0291 13.4839C25.1119 13.4158 25.1785 13.3301 25.2243 13.2332C25.27 13.1362 25.2937 13.0303 25.2937 12.9231C25.2937 12.8159 25.2699 12.7101 25.2241 12.6131V12.6098Z" fill="white"/>
</svg>
